<svg viewBox="0 0 1000 24" fill="none" xmlns="http://www.w3.org/2000/svg">
    <line 
        x1="0" y1="12" 
        x2="480" y2="12"  
        stroke="#ffffff90" 
        stroke-width="1.5" 
        stroke-linecap="round"
    />
    <g transform="translate(488, 0)"> 
        <path 
            d="M5.812 7s-.453.628-.996 1.667M18.188 7s.453.628.997 1.667m-14.37 0C4.008 10.214 3 12.674 3 15.333C5.813 15.333 7.5 17 7.5 17s1.125 5 4.5 5s4.5-5 4.5-5s1.688-1.667 4.5-1.667c0-2.659-1.007-5.119-1.816-6.666m-14.368 0S1.875 6.444 4.816 2c.996.556 3.809 2.778 3.809 2.778S10.313 3.667 12 3.667c1.688 0 3.375 1.11 3.375 1.11S18.188 2.557 19.313 2c2.812 4.445-.128 6.667-.128 6.667M11 18h1m1 0h-1m0 0v1m-3.5-6.5L10 14m5.5-1.5L14 14" 
            stroke="#ffffff90" 
            stroke-width="1.5" 
            stroke-linecap="round" 
            stroke-linejoin="round"
        />
    </g>
    <line 
        x1="512" y1="12"  
        x2="1000" y2="12" 
        stroke="#ffffff90" 
        stroke-width="1.5" 
        stroke-linecap="round"
    />
</svg>
